<mxfile host="65bd71144e">
    <diagram id="ObjVGNlfjeJ4p_7DMLqw" name="Page-1">
        <mxGraphModel dx="445" dy="1644" grid="1" gridSize="10" guides="1" tooltips="1" connect="1" arrows="1" fold="1" page="1" pageScale="1" pageWidth="827" pageHeight="1169" math="0" shadow="0">
            <root>
                <mxCell id="0"/>
                <mxCell id="1" parent="0"/>
                <mxCell id="2" value="+-------------------------+&#xa;|  Start Program          |&#xa;+-------------------------+&#xa;            |&#xa;            v&#xa;+-------------------------+&#xa;|  Class Loading (JVM)    |&#xa;+-------------------------+&#xa;            |&#xa;            v&#xa;+-------------------------+&#xa;|  Static Blocks Execution|&#xa;+-------------------------+&#xa;            |&#xa;            v&#xa;+-------------------------+&#xa;|  Main Method Execution  |&#xa;+-------------------------+&#xa;            |&#xa;            v&#xa;+-------------------------+&#xa;|  Object Creation?       | -- No --&gt; [ Continue Execution ]&#xa;|  (new keyword used?)    |&#xa;+-------------------------+&#xa;            |&#xa;            v&#xa;+-------------------------+&#xa;|  Instance Blocks Run    |&#xa;+-------------------------+&#xa;            |&#xa;            v&#xa;+-------------------------+&#xa;|  Constructor Execution  |&#xa;+-------------------------+&#xa;            |&#xa;            v&#xa;+-------------------------+&#xa;|  Method Calls (if any)  |&#xa;+-------------------------+&#xa;            |&#xa;            v&#xa;+-------------------------+&#xa;|  Garbage Collection?    | -- No --&gt; [ End Program ]&#xa;|  (JVM runs GC if needed)|&#xa;+-------------------------+&#xa;            |&#xa;            v&#xa;+-------------------------+&#xa;|  End Program            |&#xa;+-------------------------+" style="text;whiteSpace=wrap;fontFamily=Verdana;" vertex="1" parent="1">
                    <mxGeometry x="50" y="-190" width="340" height="1000" as="geometry"/>
                </mxCell>
            </root>
        </mxGraphModel>
    </diagram>
</mxfile>